<svg width="22" height="25" viewBox="0 0 22 25" fill="none" xmlns="http://www.w3.org/2000/svg">
<path id="Vector" d="M19.6429 3.125H17.2857V0.585938C17.2857 0.263672 17.0205 0 16.6964 0H16.3036C15.9795 0 15.7143 0.263672 15.7143 0.585938V3.125H6.28571V0.585938C6.28571 0.263672 6.02054 0 5.69643 0H5.30357C4.97946 0 4.71429 0.263672 4.71429 0.585938V3.125H2.35714C1.0558 3.125 0 4.1748 0 5.46875V22.6562C0 23.9502 1.0558 25 2.35714 25H19.6429C20.9442 25 22 23.9502 22 22.6562V5.46875C22 4.1748 20.9442 3.125 19.6429 3.125ZM2.35714 4.6875H19.6429C20.075 4.6875 20.4286 5.03906 20.4286 5.46875V7.8125H1.57143V5.46875C1.57143 5.03906 1.925 4.6875 2.35714 4.6875ZM19.6429 23.4375H2.35714C1.925 23.4375 1.57143 23.0859 1.57143 22.6562V9.375H20.4286V22.6562C20.4286 23.0859 20.075 23.4375 19.6429 23.4375ZM12.5567 13.1689L14.2558 14.8584C14.3589 14.9609 14.3589 15.1221 14.2558 15.2197L7.81295 21.626L6.08929 21.8701C5.75045 21.9189 5.4558 21.6309 5.50491 21.2891L5.75045 19.5752L12.1933 13.1689C12.2915 13.0713 12.4585 13.0713 12.5567 13.1689ZM16.2496 13.2373L15.3067 14.1748C15.2036 14.2773 15.0415 14.2773 14.9433 14.1748L13.2442 12.4854C13.1411 12.3828 13.1411 12.2217 13.2442 12.124L14.1871 11.1865C14.521 10.8545 15.0661 10.8545 15.4 11.1865L16.2496 12.0312C16.5835 12.3633 16.5835 12.9053 16.2496 13.2373Z" fill="white"/>
</svg>
