<svg width="18" height="17" viewBox="0 0 18 17" fill="none" xmlns="http://www.w3.org/2000/svg">
<path d="M11.6999 0.900391L6.2999 3.60039M6.2999 15.3004L1.3976 12.8488C1.24813 12.7741 1.1224 12.6593 1.0345 12.5172C0.946597 12.3751 0.899992 12.2113 0.899902 12.0442V2.35659C0.899984 2.20324 0.939249 2.05245 1.01397 1.91854C1.08869 1.78462 1.1964 1.67202 1.32686 1.59142C1.45732 1.51081 1.60621 1.46488 1.75941 1.45798C1.9126 1.45108 2.06502 1.48344 2.2022 1.55199L6.2999 3.60039V15.3004ZM6.2999 15.3004L11.6999 12.6004L6.2999 15.3004ZM6.2999 15.3004V3.60039V15.3004ZM11.6999 12.6004L15.7976 14.6488C15.9348 14.7173 16.0872 14.7497 16.2404 14.7428C16.3936 14.7359 16.5425 14.69 16.6729 14.6094C16.8034 14.5288 16.9111 14.4162 16.9858 14.2822C17.0606 14.1483 17.0998 13.9975 17.0999 13.8442V4.15659C17.0998 3.98949 17.0532 3.82572 16.9653 3.68362C16.8774 3.54151 16.7517 3.42668 16.6022 3.35199L11.6999 0.900391V12.6004ZM11.6999 12.6004V0.900391V12.6004Z" stroke="#F9BB53" stroke-width="1.8" stroke-linecap="round" stroke-linejoin="round"/>
</svg>
